<svg width="18" height="18" viewBox="0 0 64 64" fill="none" xmlns="http://www.w3.org/2000/svg">
<path d="M61.72 12.07C61.721 10.1324 61.147 8.23812 60.0707 6.62696C58.9944 5.01581 57.4642 3.76026 55.6739 3.01929C53.8836 2.27832 51.9136 2.08527 50.0135 2.46457C48.1134 2.84386 46.3686 3.77846 45 5.15001L9.84001 40.32C9.73708 40.4249 9.65855 40.5513 9.61001 40.69C9.61001 40.69 9.61001 40.69 9.61001 40.69L3.30001 59.44C3.24304 59.6154 3.23568 59.8031 3.27874 59.9824C3.3218 60.1617 3.4136 60.3256 3.54399 60.456C3.67438 60.5864 3.83829 60.6782 4.0176 60.7213C4.1969 60.7643 4.38462 60.757 4.56001 60.7L23.29 54.4C23.4287 54.3515 23.5551 54.2729 23.66 54.17L57.36 20.48L58.85 19C59.7631 18.0922 60.487 17.0123 60.9796 15.8227C61.4723 14.6331 61.7239 13.3576 61.72 12.07V12.07ZM51.93 4.28001C53.4712 4.27936 54.978 4.73588 56.2596 5.59182C57.5413 6.44775 58.5402 7.66462 59.1301 9.08846C59.72 10.5123 59.8743 12.0791 59.5734 13.5907C59.2726 15.1022 58.5301 16.4905 57.44 17.58L56.66 18.36L45.66 7.36001L46.44 6.58001C47.1587 5.85418 48.0136 5.27738 48.9557 4.88269C49.8978 4.48801 50.9086 4.2832 51.93 4.28001V4.28001ZM23 52L12 41L44.23 8.76001L55.23 19.76L23 52ZM11 42.88L21.12 53L5.83001 58.17L11 42.88Z" fill="#eeeeee" id="id_102"></path>
</svg>